<?xml version="1.0" encoding="utf-8"?>
<!-- Generator: Adobe Illustrator 22.0.1, SVG Export Plug-In . SVG Version: 6.00 Build 0)  -->
<svg version="1.1" id="Layer_1" xmlns="http://www.w3.org/2000/svg" xmlns:xlink="http://www.w3.org/1999/xlink" x="0px" y="0px"
	 viewBox="0 0 5660 4093.8" enable-background="new 0 0 5660 4093.8" xml:space="preserve">
<path fill="#FFE700" d="M3137.9,1261.4l-64.5-37.3l-193.6-111.7c-27.2-15.7-60.7-15.7-87.9,0l-193.6,111.7l-64,36.9l-193.6,111.7
	c-27.2,15.7-44,44.7-44,76.2v223.5v616.2h39.6h39.6h39.6h39.6h39.6h39.6V1586c0-31.4,16.8-60.4,44-76.1l213.6-123.3
	c27.2-15.7,60.7-15.7,87.9,0l214.1,123.6c27.2,15.7,44,44.7,44,76.1v702.3h39.6h39.6h39.6h39.6h39.6h39.6v-615.9v-223.5
	c0-31.4-16.8-60.4-44-76.1L3137.9,1261.4z"/>
<path fill="#FFD00A" d="M3613,987.1l-539.6-311.5l-193.6-111.7c-27.2-15.7-60.7-15.7-87.9,0l-193.6,111.7l-539,311.2l-193.5,111.7
	c-27.2,15.7-44,44.7-44,76.1v223.5v890.5h39.6h39.6h39.6h39.6h39.6h39.6v-976.9c0-31.4,16.8-60.4,44-76.1L2792,838
	c27.2-15.7,60.7-15.7,87.9,0l689.1,398c27.2,15.7,44,44.7,44,76.2v976.5h39.6h39.6h39.6h39.6h39.6h39.6v-890.2V1175
	c0-31.4-16.8-60.4-44-76.1L3613,987.1z"/>
<path fill="#FFAD02" d="M4281.5,824.6L2879.8,15.3c-27.2-15.7-60.7-15.7-87.9,0l-1401.2,809c-27.2,15.7-44,44.7-44,76.1v1775.4
	c0,48.6,39.4,87.9,87.9,87.9h1099.7v-237.5h-950.1V1037.6c0-31.4,16.8-60.4,44-76.2l1163.6-671.8c27.2-15.7,60.7-15.7,87.9,0
	L4044,961.7c27.2,15.7,44,44.7,44,76.1v1488.3h-950.1v237.5h1099.6c48.6,0,87.9-39.4,87.9-87.9v-1775
	C4325.5,869.3,4308.7,840.3,4281.5,824.6"/>
<g>
	<path fill="#003349" d="M1624.4,3682.7c-2.8,128-94.8,277.5-345.2,277.5c-152.1,0-242.8-61.9-242.8-165.7
		c0-113.1,87.4-171.3,274.8-183l313.3-9.7L1624.4,3682.7L1624.4,3682.7z M1372.5,3070.2h-4.9c-140.7,0-258.8,41.3-332.7,116.3
		c-41.7,42.4-68.7,93.4-80.3,151.8c-1.3,6.6,3.9,12.8,10.6,12.8h135.3c28.3-98.4,122-152.7,265.2-152.7h4.9
		c158.9,0.1,253.8,56.3,253.8,150.2v126c0,3.3-2.5,5.9-5.8,6.1l-327.3,14.2c-265.6,14-394.7,112-394.7,299.6
		c0,218.1,194.7,295.8,376.9,295.8c140.3,0,242.9-38.3,332.9-124.5l20-22.2v127.3h135.9v-703
		C1762.2,3178.9,1620.1,3070.4,1372.5,3070.2"/>
	<path fill="#003349" d="M2362.8,3070.2c-279.2,0-475,229.7-475,512c0,280.2,187.3,508.1,475,508.1c155.8,0,281.6-64.8,370.3-182.5
		c19.4-25.8,37-55.5,51.3-86.7c3.3-7.3-2.2-15.6-10.2-15.6h-140.5c-24.9,40-53.5,67.2-65,77.3c-59.3,51.9-124.6,77.5-205.9,77.5
		c-180.1,0-333.3-168.6-333.3-378.1c0-211.6,153.2-382,333.3-382c86.3,0,155.7,29.7,217.4,89.3c8.6,8.3,30.2,30.6,50.8,61.6h141.2
		c8.1,0,13.5-8.6,10.1-15.8c-24.5-51.3-53.8-89.3-74.9-112.8C2619.2,3124.3,2502.6,3070.2,2362.8,3070.2"/>
	<path fill="#003349" d="M3606.8,3682.7c-2.8,128-94.8,277.5-345.2,277.5c-152.1,0-242.9-61.9-242.9-165.7
		c0-113.1,87.4-171.3,274.8-183l313.2-9.7L3606.8,3682.7L3606.8,3682.7z M3355,3070.2h-4.9c-140.6,0-258.8,41.3-332.7,116.3
		c-41.6,42.2-68.4,92.9-80.1,150.9c-1.4,7,4.2,13.7,11.4,13.7H3083c28.2-98.4,122-152.7,265.2-152.7h4.9
		c158.9,0.1,253.8,56.3,253.8,150.2v126c0,3.3-2.5,5.9-5.8,6.1l-327.3,14.2c-265.6,14-394.7,112-394.7,299.6
		c0,218.1,194.7,295.8,376.9,295.8c140.4,0,242.9-38.3,332.9-124.5l20-22.2v127.3h135.9v-703
		C3744.7,3178.9,3602.7,3070.4,3355,3070.2"/>
	<path fill="#003349" d="M4273.6,3070.1c-259.8,0-378.1,147-378.1,283.6c0,61.8,14.8,109.4,45.1,145.5
		c68.5,81.5,164.7,101.3,341.6,112.9c174.5,11.4,261.6,68.6,266.2,174.7c1.9,41.9-11.6,79.1-38.9,107.7
		c-41.1,42.9-112.9,65.6-207.8,65.6l-9-0.1c-108-1.5-198.8-40.4-249.2-106.7c-11.6-15.2-19.8-30.3-26.7-47.8h-132.5
		c-7.4,0-13,7.2-11,14.4c47.2,166.7,202.7,267.4,419.8,270.3l10.1,0.1c135.2,0,246.1-37.1,312.2-104.6
		c49.9-50.9,74.4-117.9,72.8-199.1c-3.6-182-128-280.7-380.2-301.7c-162.7-13.6-271.1-42.1-271.1-136.9
		c0-85.5,101.7-149.9,236.6-149.9c107.2,0,188.4,39.7,228.6,111.7c3.8,6.8,10.8,21,16.9,41.3h132.5c6.6,0,11.8-6.2,10.5-12.8
		c-2.9-14.8-6.3-28.2-10.3-40.5C4604.6,3153.1,4466.8,3070.1,4273.6,3070.1"/>
	<path fill="#003349" d="M5522.2,3682.7c-2.8,128-94.8,277.5-345.2,277.5c-152.1,0-242.9-61.9-242.9-165.7
		c0-113.1,87.4-171.3,274.8-183l313.3-9.7L5522.2,3682.7z M5270.3,3070.2h-4.9c-140.6,0-258.8,41.3-332.7,116.3
		c-41.8,42.4-68.8,93.5-80.4,152c-1.3,6.4,3.9,12.5,10.4,12.5h135.5c28.2-98.4,122-152.7,265.2-152.7h4.9
		c158.9,0.1,253.8,56.3,253.8,150.2v126c0,3.3-2.5,5.9-5.8,6.1l-327.3,14.2c-265.6,14-394.7,112-394.7,299.6
		c0,218.1,194.7,295.8,376.8,295.8c140.4,0,242.9-38.3,332.9-124.5l20-22.2v127.3h136v-703C5660,3178.9,5518,3070.4,5270.3,3070.2"
		/>
	<path fill="#003349" d="M754.3,3093.2l-301.6,819.2l-306.6-819.2H11c-7.6,0-12.9,7.6-10.3,14.7l367.5,962.9h166.9L899.7,3108
		c2.6-7.2-2.7-14.7-10.3-14.7L754.3,3093.2L754.3,3093.2z"/>
</g>
</svg>
